<svg width="28" height="31" viewBox="0 0 28 31" fill="none" xmlns="http://www.w3.org/2000/svg">
<path d="M17.5858 23.9891L18.346 23.2289L17.3324 22.9755L17.5858 23.9891Z" fill="#FFF5E4"/>
<path fill-rule="evenodd" clip-rule="evenodd" d="M27.5531 23.2519V8.27795L7.703 19.6508V27.4306L13.9391 31L27.5531 23.2519ZM16.6989 20.3147L14.4605 21.9619L15.094 23.0177L12.94 23.4823L14.8828 23.4401L13.7847 23.6935L15.3052 23.6512L14.4605 23.8624L15.6008 23.9046L16.9945 26.1431L18.8951 25.1294L19.6131 25.594L19.064 25.045L20.1621 25.8052L19.2752 24.9183L20.7534 26.0164L19.5708 24.7071C19.6869 24.6416 19.8283 24.563 19.9797 24.4789C20.5446 24.165 21.2492 23.7734 21.3024 23.6935C21.3362 23.5921 21.3165 23.4401 21.3024 23.3978L20.9223 21.2439L24.3855 14.1908L18.7684 20.357L18.6839 14.2752L16.6989 20.3147ZM18.515 22.0886L18.5171 22.0887C18.7853 22.1028 19.326 22.1312 19.3597 22.2997C19.3606 22.3046 19.3616 22.3095 19.3626 22.3145C19.404 22.5225 19.452 22.7633 19.782 22.7221C19.9915 22.6959 20.0776 22.6376 20.1199 22.4687C20.175 22.248 20.1621 22.0886 19.782 21.9619C19.4019 21.8352 18.9796 21.8774 18.515 22.0886ZM15.9809 21.4551L15.983 21.4552C16.2513 21.4693 16.7919 21.4977 16.8256 21.6662C16.8266 21.6711 16.8276 21.676 16.8285 21.681C16.87 21.889 16.9179 22.1298 17.2479 22.0886C17.4575 22.0624 17.5436 22.0041 17.5858 21.8352C17.641 21.6145 17.6281 21.4551 17.2479 21.3283C16.8678 21.2016 16.4455 21.2439 15.9809 21.4551ZM18.8528 24.327C18.7402 24.4255 18.4812 24.6311 18.346 24.6649C18.1771 24.7071 17.2479 24.7071 17.1635 24.6649C17.0621 24.6649 16.6707 24.6085 16.4877 24.5804C16.5159 24.6508 16.6905 24.8169 17.1635 24.9183C17.6365 25.0196 18.2616 24.9887 18.515 24.9605C18.6698 24.8619 18.9542 24.5973 18.8528 24.327Z" fill="#FFF5E4"/>
<path fill-rule="evenodd" clip-rule="evenodd" d="M0.607635 7.80574L14.1475 0L20.3733 3.5959V11.3139L0.607635 22.891V7.80574ZM7.19618 9.03814V15.8801L13.7003 12.3324L13.9959 7.2643L10.8283 10.8964L7.19618 9.03814ZM15.3052 13.1771L16.2343 5.15258L18.8528 3.71662L8.0831 4.26566L15.2629 5.19482L15.3052 13.1771ZM6.64714 7.68664L1.66349 10.812V18.4986L7.11171 17.3161L4.53542 12.797L6.64714 7.68664Z" fill="#FFF5E4"/>
</svg>
